<mxfile host="app.diagrams.net" modified="2022-08-08T13:33:22.692Z" agent="5.0 (Windows NT 10.0; Win64; x64) AppleWebKit/537.36 (KHTML, like Gecko) Chrome/103.0.0.0 Safari/537.36" etag="Do7JpNP_SOVNR2g6-W2K" version="20.2.3" type="github">
  <diagram id="C5RBs43oDa-KdzZeNtuy" name="Page-1">
    <mxGraphModel dx="2146" dy="897" grid="1" gridSize="10" guides="1" tooltips="1" connect="1" arrows="1" fold="1" page="1" pageScale="1" pageWidth="827" pageHeight="1169" math="0" shadow="0">
      <root>
        <mxCell id="WIyWlLk6GJQsqaUBKTNV-0" />
        <mxCell id="WIyWlLk6GJQsqaUBKTNV-1" parent="WIyWlLk6GJQsqaUBKTNV-0" />
        <mxCell id="VZbGB21oEdIR4fVDhX-7-14" style="edgeStyle=none;curved=1;rounded=0;orthogonalLoop=1;jettySize=auto;html=1;exitX=1;exitY=0.5;exitDx=0;exitDy=0;entryX=-0.014;entryY=0.443;entryDx=0;entryDy=0;entryPerimeter=0;endArrow=open;startSize=14;endSize=14;sourcePerimeterSpacing=8;targetPerimeterSpacing=8;" edge="1" parent="WIyWlLk6GJQsqaUBKTNV-1" source="VZbGB21oEdIR4fVDhX-7-0" target="VZbGB21oEdIR4fVDhX-7-5">
          <mxGeometry relative="1" as="geometry" />
        </mxCell>
        <mxCell id="VZbGB21oEdIR4fVDhX-7-0" value="Select &quot;copy and paste&quot; button." style="rounded=0;whiteSpace=wrap;html=1;hachureGap=4;" vertex="1" parent="WIyWlLk6GJQsqaUBKTNV-1">
          <mxGeometry x="20" y="120" width="90" height="70" as="geometry" />
        </mxCell>
        <mxCell id="VZbGB21oEdIR4fVDhX-7-15" style="edgeStyle=none;curved=1;rounded=0;orthogonalLoop=1;jettySize=auto;html=1;exitX=1;exitY=0.5;exitDx=0;exitDy=0;entryX=0;entryY=0.5;entryDx=0;entryDy=0;endArrow=open;startSize=14;endSize=14;sourcePerimeterSpacing=8;targetPerimeterSpacing=8;" edge="1" parent="WIyWlLk6GJQsqaUBKTNV-1" source="VZbGB21oEdIR4fVDhX-7-5" target="VZbGB21oEdIR4fVDhX-7-12">
          <mxGeometry relative="1" as="geometry" />
        </mxCell>
        <mxCell id="VZbGB21oEdIR4fVDhX-7-5" value="Move mouse to within bands of shape to be copied." style="rounded=0;whiteSpace=wrap;html=1;hachureGap=4;" vertex="1" parent="WIyWlLk6GJQsqaUBKTNV-1">
          <mxGeometry x="150" y="120" width="90" height="80" as="geometry" />
        </mxCell>
        <mxCell id="VZbGB21oEdIR4fVDhX-7-17" style="edgeStyle=none;curved=1;rounded=0;orthogonalLoop=1;jettySize=auto;html=1;exitX=1;exitY=0.5;exitDx=0;exitDy=0;entryX=0;entryY=0.5;entryDx=0;entryDy=0;endArrow=open;startSize=14;endSize=14;sourcePerimeterSpacing=8;targetPerimeterSpacing=8;" edge="1" parent="WIyWlLk6GJQsqaUBKTNV-1" source="VZbGB21oEdIR4fVDhX-7-6" target="VZbGB21oEdIR4fVDhX-7-7">
          <mxGeometry relative="1" as="geometry" />
        </mxCell>
        <mxCell id="VZbGB21oEdIR4fVDhX-7-6" value="Left click mouse when within bounds of desired shape." style="rounded=0;whiteSpace=wrap;html=1;hachureGap=4;" vertex="1" parent="WIyWlLk6GJQsqaUBKTNV-1">
          <mxGeometry x="334" y="120" width="80" height="80" as="geometry" />
        </mxCell>
        <mxCell id="VZbGB21oEdIR4fVDhX-7-18" style="edgeStyle=none;curved=1;rounded=0;orthogonalLoop=1;jettySize=auto;html=1;exitX=1;exitY=0.5;exitDx=0;exitDy=0;entryX=0;entryY=0.5;entryDx=0;entryDy=0;endArrow=open;startSize=14;endSize=14;sourcePerimeterSpacing=8;targetPerimeterSpacing=8;" edge="1" parent="WIyWlLk6GJQsqaUBKTNV-1" source="VZbGB21oEdIR4fVDhX-7-7" target="VZbGB21oEdIR4fVDhX-7-13">
          <mxGeometry relative="1" as="geometry" />
        </mxCell>
        <mxCell id="VZbGB21oEdIR4fVDhX-7-7" value="Move mouse to desired pasting location for copy of shape." style="rounded=0;whiteSpace=wrap;html=1;hachureGap=4;" vertex="1" parent="WIyWlLk6GJQsqaUBKTNV-1">
          <mxGeometry x="450" y="120" width="100" height="80" as="geometry" />
        </mxCell>
        <mxCell id="VZbGB21oEdIR4fVDhX-7-23" style="edgeStyle=none;curved=1;rounded=0;orthogonalLoop=1;jettySize=auto;html=1;exitX=0.5;exitY=0;exitDx=0;exitDy=0;entryX=0.5;entryY=0;entryDx=0;entryDy=0;endArrow=open;startSize=14;endSize=14;sourcePerimeterSpacing=8;targetPerimeterSpacing=8;" edge="1" parent="WIyWlLk6GJQsqaUBKTNV-1" source="VZbGB21oEdIR4fVDhX-7-8" target="VZbGB21oEdIR4fVDhX-7-7">
          <mxGeometry relative="1" as="geometry">
            <Array as="points">
              <mxPoint x="600" y="50" />
            </Array>
          </mxGeometry>
        </mxCell>
        <mxCell id="VZbGB21oEdIR4fVDhX-7-28" style="edgeStyle=none;curved=1;rounded=0;orthogonalLoop=1;jettySize=auto;html=1;exitX=0.75;exitY=0;exitDx=0;exitDy=0;entryX=0.5;entryY=0;entryDx=0;entryDy=0;endArrow=open;startSize=14;endSize=14;sourcePerimeterSpacing=8;targetPerimeterSpacing=8;" edge="1" parent="WIyWlLk6GJQsqaUBKTNV-1" source="VZbGB21oEdIR4fVDhX-7-8" target="VZbGB21oEdIR4fVDhX-7-5">
          <mxGeometry relative="1" as="geometry">
            <Array as="points">
              <mxPoint x="490" y="10" />
            </Array>
          </mxGeometry>
        </mxCell>
        <mxCell id="VZbGB21oEdIR4fVDhX-7-8" value="When at desired location, click right mouse button. Repeat pastes as desired, or select new shape." style="rounded=0;whiteSpace=wrap;html=1;hachureGap=4;" vertex="1" parent="WIyWlLk6GJQsqaUBKTNV-1">
          <mxGeometry x="650" y="100" width="120" height="120" as="geometry" />
        </mxCell>
        <mxCell id="VZbGB21oEdIR4fVDhX-7-16" style="edgeStyle=none;curved=1;rounded=0;orthogonalLoop=1;jettySize=auto;html=1;exitX=1;exitY=0.5;exitDx=0;exitDy=0;entryX=0;entryY=0.5;entryDx=0;entryDy=0;endArrow=open;startSize=14;endSize=14;sourcePerimeterSpacing=8;targetPerimeterSpacing=8;" edge="1" parent="WIyWlLk6GJQsqaUBKTNV-1" source="VZbGB21oEdIR4fVDhX-7-12" target="VZbGB21oEdIR4fVDhX-7-6">
          <mxGeometry relative="1" as="geometry" />
        </mxCell>
        <mxCell id="VZbGB21oEdIR4fVDhX-7-22" style="edgeStyle=none;curved=1;rounded=0;orthogonalLoop=1;jettySize=auto;html=1;exitX=0.5;exitY=1;exitDx=0;exitDy=0;entryX=0.5;entryY=1;entryDx=0;entryDy=0;endArrow=open;startSize=14;endSize=14;sourcePerimeterSpacing=8;targetPerimeterSpacing=8;" edge="1" parent="WIyWlLk6GJQsqaUBKTNV-1" source="VZbGB21oEdIR4fVDhX-7-12" target="VZbGB21oEdIR4fVDhX-7-5">
          <mxGeometry relative="1" as="geometry">
            <Array as="points">
              <mxPoint x="280" y="230" />
              <mxPoint x="220" y="250" />
            </Array>
          </mxGeometry>
        </mxCell>
        <mxCell id="VZbGB21oEdIR4fVDhX-7-12" value="@ loc?" style="rhombus;whiteSpace=wrap;html=1;hachureGap=4;" vertex="1" parent="WIyWlLk6GJQsqaUBKTNV-1">
          <mxGeometry x="260" y="135" width="50" height="50" as="geometry" />
        </mxCell>
        <mxCell id="VZbGB21oEdIR4fVDhX-7-19" style="edgeStyle=none;curved=1;rounded=0;orthogonalLoop=1;jettySize=auto;html=1;exitX=1;exitY=0.5;exitDx=0;exitDy=0;entryX=0;entryY=0.5;entryDx=0;entryDy=0;endArrow=open;startSize=14;endSize=14;sourcePerimeterSpacing=8;targetPerimeterSpacing=8;" edge="1" parent="WIyWlLk6GJQsqaUBKTNV-1" source="VZbGB21oEdIR4fVDhX-7-13" target="VZbGB21oEdIR4fVDhX-7-8">
          <mxGeometry relative="1" as="geometry" />
        </mxCell>
        <mxCell id="VZbGB21oEdIR4fVDhX-7-21" style="edgeStyle=none;curved=1;rounded=0;orthogonalLoop=1;jettySize=auto;html=1;exitX=0.5;exitY=1;exitDx=0;exitDy=0;entryX=0.5;entryY=1;entryDx=0;entryDy=0;endArrow=open;startSize=14;endSize=14;sourcePerimeterSpacing=8;targetPerimeterSpacing=8;" edge="1" parent="WIyWlLk6GJQsqaUBKTNV-1" source="VZbGB21oEdIR4fVDhX-7-13" target="VZbGB21oEdIR4fVDhX-7-7">
          <mxGeometry relative="1" as="geometry">
            <Array as="points">
              <mxPoint x="590" y="240" />
              <mxPoint x="510" y="240" />
            </Array>
          </mxGeometry>
        </mxCell>
        <mxCell id="VZbGB21oEdIR4fVDhX-7-13" value="@ loc?" style="rhombus;whiteSpace=wrap;html=1;hachureGap=4;" vertex="1" parent="WIyWlLk6GJQsqaUBKTNV-1">
          <mxGeometry x="580" y="135" width="50" height="50" as="geometry" />
        </mxCell>
        <mxCell id="VZbGB21oEdIR4fVDhX-7-29" value="Yes" style="text;strokeColor=none;fillColor=none;html=1;align=center;verticalAlign=middle;whiteSpace=wrap;rounded=0;hachureGap=4;" vertex="1" parent="WIyWlLk6GJQsqaUBKTNV-1">
          <mxGeometry x="290" y="170" width="60" height="30" as="geometry" />
        </mxCell>
        <mxCell id="VZbGB21oEdIR4fVDhX-7-30" value="Yes" style="text;strokeColor=none;fillColor=none;html=1;align=center;verticalAlign=middle;whiteSpace=wrap;rounded=0;hachureGap=4;" vertex="1" parent="WIyWlLk6GJQsqaUBKTNV-1">
          <mxGeometry x="600" y="120" width="60" height="30" as="geometry" />
        </mxCell>
        <mxCell id="VZbGB21oEdIR4fVDhX-7-31" value="No" style="text;strokeColor=none;fillColor=none;html=1;align=center;verticalAlign=middle;whiteSpace=wrap;rounded=0;hachureGap=4;" vertex="1" parent="WIyWlLk6GJQsqaUBKTNV-1">
          <mxGeometry x="220" y="250" width="60" height="30" as="geometry" />
        </mxCell>
        <mxCell id="VZbGB21oEdIR4fVDhX-7-32" value="No" style="text;strokeColor=none;fillColor=none;html=1;align=center;verticalAlign=middle;whiteSpace=wrap;rounded=0;hachureGap=4;" vertex="1" parent="WIyWlLk6GJQsqaUBKTNV-1">
          <mxGeometry x="520" y="240" width="60" height="30" as="geometry" />
        </mxCell>
      </root>
    </mxGraphModel>
  </diagram>
</mxfile>
